<?xml version="1.0" encoding="UTF-8" standalone="no"?>
<!DOCTYPE svg PUBLIC "-//W3C//DTD SVG 1.1//EN"
 "http://www.w3.org/Graphics/SVG/1.1/DTD/svg11.dtd">
<!-- Generated by graphviz version 14.0.0 (20250921.2048)
 -->
<!-- Title: G Pages: 1 -->
<svg width="560pt" height="771pt"
 viewBox="0.00 0.00 560.00 771.00" xmlns="http://www.w3.org/2000/svg" xmlns:xlink="http://www.w3.org/1999/xlink">
<g id="graph0" class="graph" transform="scale(1 1) rotate(0) translate(4 766.68)">
<title>G</title><style>.edge>path:hover{stroke-width:8}</style>
<polygon fill="white" stroke="none" points="-4,4 -4,-766.68 555.52,-766.68 555.52,4 -4,4"/>
<!-- bs4 -->
<g id="node1" class="node">
<title>bs4</title><style>.edge>path:hover{stroke-width:8}</style>
<ellipse fill="#c04040" stroke="black" cx="361.72" cy="-672.68" rx="27" ry="18"/>
<text xml:space="preserve" text-anchor="middle" x="361.72" y="-669.18" font-family="Helvetica,sans-Serif" font-size="10.00" fill="#ffffff">bs4</text>
</g>
<!-- src_app_scrape -->
<g id="node13" class="node">
<title>src_app_scrape</title><style>.edge>path:hover{stroke-width:8}</style>
<ellipse fill="#3d3db8" stroke="black" cx="433.72" cy="-417.34" rx="48.41" ry="18"/>
<text xml:space="preserve" text-anchor="middle" x="433.72" y="-413.84" font-family="Helvetica,sans-Serif" font-size="10.00" fill="#ffffff">src.app.scrape</text>
</g>
<!-- bs4&#45;&gt;src_app_scrape -->
<g id="edge1" class="edge">
<title>bs4&#45;&gt;src_app_scrape</title><style>.edge>path:hover{stroke-width:8}</style>
<path fill="none" stroke="black" d="M382.16,-660.76C401.12,-649.12 427.35,-628.65 433.72,-601.68"/>
<path fill="none" stroke="black" d="M433.72,-599.68C446.2,-546.82 441.86,-482.86 437.7,-446.76"/>
<polygon fill="#c04040" stroke="black" points="441.21,-446.64 436.51,-437.14 434.27,-447.5 441.21,-446.64"/>
</g>
<!-- flask -->
<g id="node2" class="node">
<title>flask</title><style>.edge>path:hover{stroke-width:8}</style>
<ellipse fill="#cccc33" stroke="black" cx="128.72" cy="-417.34" rx="27" ry="18"/>
<text xml:space="preserve" text-anchor="middle" x="128.72" y="-413.84" font-family="Helvetica,sans-Serif" font-size="10.00" fill="#000000">flask</text>
</g>
<!-- src_app -->
<g id="node6" class="node">
<title>src_app</title><style>.edge>path:hover{stroke-width:8}</style>
<polygon fill="blue" stroke="black" points="327.72,-108 273.72,-108 273.72,-72 327.72,-72 327.72,-108"/>
<text xml:space="preserve" text-anchor="middle" x="300.72" y="-86.5" font-family="Helvetica,sans-Serif" font-size="10.00" fill="white">src.app</text>
</g>
<!-- flask&#45;&gt;src_app -->
<g id="edge2" class="edge">
<title>flask&#45;&gt;src_app</title><style>.edge>path:hover{stroke-width:8}</style>
<path fill="none" stroke="black" d="M145.72,-246.11C154.32,-200.76 135.28,-179.56 164.72,-144 188.87,-114.84 231.15,-101.66 262.18,-95.75"/>
<polygon fill="#cccc33" stroke="black" points="262.7,-99.21 271.97,-94.07 261.52,-92.31 262.7,-99.21"/>
<path fill="none" stroke="black" d="M129.18,-398.94C130.28,-368.18 133.93,-302.32 145.72,-248.11"/>
</g>
<!-- src_app_routes -->
<g id="node12" class="node">
<title>src_app_routes</title><style>.edge>path:hover{stroke-width:8}</style>
<polygon fill="blue" stroke="black" points="251.85,-180 173.6,-180 173.6,-144 251.85,-144 251.85,-180"/>
<text xml:space="preserve" text-anchor="middle" x="212.72" y="-158.5" font-family="Helvetica,sans-Serif" font-size="10.00" fill="white">src.app.routes</text>
</g>
<!-- flask&#45;&gt;src_app_routes -->
<g id="edge3" class="edge">
<title>flask&#45;&gt;src_app_routes</title><style>.edge>path:hover{stroke-width:8}</style>
<path fill="none" stroke="black" d="M145.72,-246.11C150.06,-223.22 166.3,-202.77 181.7,-187.88"/>
<polygon fill="#cccc33" stroke="black" points="183.96,-190.56 188.97,-181.22 179.23,-185.39 183.96,-190.56"/>
</g>
<!-- psycopg -->
<g id="node3" class="node">
<title>psycopg</title><style>.edge>path:hover{stroke-width:8}</style>
<ellipse fill="#26d926" stroke="black" cx="31.72" cy="-744.68" rx="31.72" ry="18"/>
<text xml:space="preserve" text-anchor="middle" x="31.72" y="-741.18" font-family="Helvetica,sans-Serif" font-size="10.00" fill="#000000">psycopg</text>
</g>
<!-- src_app_db -->
<g id="node8" class="node">
<title>src_app_db</title><style>.edge>path:hover{stroke-width:8}</style>
<ellipse fill="#2f2fbc" stroke="black" cx="330.72" cy="-515.56" rx="37.13" ry="18"/>
<text xml:space="preserve" text-anchor="middle" x="330.72" y="-512.06" font-family="Helvetica,sans-Serif" font-size="10.00" fill="#ffffff">src.app.db</text>
</g>
<!-- psycopg&#45;&gt;src_app_db -->
<g id="edge4" class="edge">
<title>psycopg&#45;&gt;src_app_db</title><style>.edge>path:hover{stroke-width:8}</style>
<path fill="none" stroke="black" d="M189.72,-671.68C236.53,-635.02 275.89,-654.22 303.72,-601.68"/>
<path fill="none" stroke="black" d="M303.72,-599.68C312.86,-582.41 319.64,-561.49 324.12,-544.96"/>
<polygon fill="#26d926" stroke="black" points="327.51,-545.83 326.6,-535.28 320.72,-544.1 327.51,-545.83"/>
</g>
<!-- src_app_db_helper -->
<g id="node9" class="node">
<title>src_app_db_helper</title><style>.edge>path:hover{stroke-width:8}</style>
<ellipse fill="#2d2db4" stroke="black" cx="288.72" cy="-417.34" rx="41.01" ry="31.11"/>
<text xml:space="preserve" text-anchor="middle" x="288.72" y="-425.84" font-family="Helvetica,sans-Serif" font-size="10.00" fill="#ffffff">src.</text>
<text xml:space="preserve" text-anchor="middle" x="288.72" y="-413.84" font-family="Helvetica,sans-Serif" font-size="10.00" fill="#ffffff">app.</text>
<text xml:space="preserve" text-anchor="middle" x="288.72" y="-401.84" font-family="Helvetica,sans-Serif" font-size="10.00" fill="#ffffff">db_helper</text>
</g>
<!-- psycopg&#45;&gt;src_app_db_helper -->
<g id="edge5" class="edge">
<title>psycopg&#45;&gt;src_app_db_helper</title><style>.edge>path:hover{stroke-width:8}</style>
<path fill="none" stroke="black" d="M56.69,-732.99C99.79,-714.5 184.11,-678.07 189.72,-673.68"/>
<path fill="none" stroke="black" d="M189.72,-671.68C214.21,-652.49 195.98,-632.15 189.72,-601.68"/>
<path fill="none" stroke="black" d="M189.72,-599.68C182.96,-566.74 148.73,-577.68 135.72,-546.68 125.02,-521.18 120.53,-507.56 135.72,-484.45 158.09,-450.41 202.12,-433.82 237.23,-425.77"/>
<polygon fill="#26d926" stroke="black" points="237.72,-429.25 246.79,-423.76 236.28,-422.4 237.72,-429.25"/>
</g>
<!-- src_app_query_data -->
<g id="node11" class="node">
<title>src_app_query_data</title><style>.edge>path:hover{stroke-width:8}</style>
<ellipse fill="#3a3ab0" stroke="black" cx="189.72" cy="-515.56" rx="45.25" ry="31.11"/>
<text xml:space="preserve" text-anchor="middle" x="189.72" y="-524.06" font-family="Helvetica,sans-Serif" font-size="10.00" fill="#ffffff">src.</text>
<text xml:space="preserve" text-anchor="middle" x="189.72" y="-512.06" font-family="Helvetica,sans-Serif" font-size="10.00" fill="#ffffff">app.</text>
<text xml:space="preserve" text-anchor="middle" x="189.72" y="-500.06" font-family="Helvetica,sans-Serif" font-size="10.00" fill="#ffffff">query_data</text>
</g>
<!-- psycopg&#45;&gt;src_app_query_data -->
<g id="edge6" class="edge">
<title>psycopg&#45;&gt;src_app_query_data</title><style>.edge>path:hover{stroke-width:8}</style>
<path fill="none" stroke="black" d="M189.72,-599.68C186.98,-586.34 186.26,-571.54 186.44,-558.17"/>
<polygon fill="#26d926" stroke="black" points="189.94,-558.49 186.76,-548.38 182.94,-558.26 189.94,-558.49"/>
</g>
<!-- psycopg_sql -->
<g id="node4" class="node">
<title>psycopg_sql</title><style>.edge>path:hover{stroke-width:8}</style>
<ellipse fill="#3bce3b" stroke="black" cx="122.72" cy="-744.68" rx="41.19" ry="18"/>
<text xml:space="preserve" text-anchor="middle" x="122.72" y="-741.18" font-family="Helvetica,sans-Serif" font-size="10.00" fill="#000000">psycopg.sql</text>
</g>
<!-- psycopg_sql&#45;&gt;src_app_db -->
<g id="edge7" class="edge">
<title>psycopg_sql&#45;&gt;src_app_db</title><style>.edge>path:hover{stroke-width:8}</style>
<path fill="none" stroke="black" d="M265.72,-671.68C288.01,-644.18 287.15,-632.96 303.72,-601.68"/>
</g>
<!-- psycopg_sql&#45;&gt;src_app_db_helper -->
<g id="edge8" class="edge">
<title>psycopg_sql&#45;&gt;src_app_db_helper</title><style>.edge>path:hover{stroke-width:8}</style>
<path fill="none" stroke="black" d="M153.32,-732.23C190.65,-717.69 250.66,-692.25 265.72,-673.68"/>
<path fill="none" stroke="black" d="M265.72,-671.68C272.28,-663.59 281.66,-529.93 286.14,-460.1"/>
<polygon fill="#3bce3b" stroke="black" points="289.63,-460.37 286.77,-450.17 282.64,-459.93 289.63,-460.37"/>
</g>
<!-- psycopg_sql&#45;&gt;src_app_query_data -->
<g id="edge9" class="edge">
<title>psycopg_sql&#45;&gt;src_app_query_data</title><style>.edge>path:hover{stroke-width:8}</style>
<path fill="none" stroke="black" d="M149.65,-730.62C178.84,-715.71 222.04,-691.12 227.72,-673.68"/>
<path fill="none" stroke="black" d="M227.72,-671.68C240.46,-632.6 225.7,-586.76 211.02,-555.1"/>
<polygon fill="#3bce3b" stroke="black" points="214.26,-553.77 206.75,-546.3 207.97,-556.83 214.26,-553.77"/>
</g>
<!-- psycopg_pool -->
<g id="node5" class="node">
<title>psycopg_pool</title><style>.edge>path:hover{stroke-width:8}</style>
<ellipse fill="#3bcece" stroke="black" cx="227.72" cy="-744.68" rx="45.7" ry="18"/>
<text xml:space="preserve" text-anchor="middle" x="227.72" y="-741.18" font-family="Helvetica,sans-Serif" font-size="10.00" fill="#000000">psycopg_pool</text>
</g>
<!-- psycopg_pool&#45;&gt;src_app_db -->
<g id="edge10" class="edge">
<title>psycopg_pool&#45;&gt;src_app_db</title><style>.edge>path:hover{stroke-width:8}</style>
<path fill="none" stroke="black" d="M247.32,-728.14C258.32,-718.46 271.46,-705.11 279.72,-690.68 300.06,-655.12 285.53,-638.38 303.72,-601.68"/>
</g>
<!-- psycopg_pool&#45;&gt;src_app_query_data -->
<g id="edge11" class="edge">
<title>psycopg_pool&#45;&gt;src_app_query_data</title><style>.edge>path:hover{stroke-width:8}</style>
<path fill="none" stroke="black" d="M224.78,-726.24C223.03,-711.78 222.11,-690.89 227.72,-673.68"/>
</g>
<!-- src_load_data -->
<g id="node14" class="node">
<title>src_load_data</title><style>.edge>path:hover{stroke-width:8}</style>
<ellipse fill="#3333cc" stroke="black" cx="506.72" cy="-600.68" rx="44.8" ry="18"/>
<text xml:space="preserve" text-anchor="middle" x="506.72" y="-597.18" font-family="Helvetica,sans-Serif" font-size="10.00" fill="#ffffff">src.load_data</text>
</g>
<!-- psycopg_pool&#45;&gt;src_load_data -->
<g id="edge12" class="edge">
<title>psycopg_pool&#45;&gt;src_load_data</title><style>.edge>path:hover{stroke-width:8}</style>
<path fill="none" stroke="black" d="M271.45,-738.97C332.74,-731.57 440.06,-715.47 469.72,-690.68 487.88,-675.5 497.27,-649.92 502.03,-630.07"/>
<polygon fill="#3bcece" stroke="black" points="505.44,-630.87 504.08,-620.36 498.59,-629.43 505.44,-630.87"/>
</g>
<!-- src_run -->
<g id="node15" class="node">
<title>src_run</title><style>.edge>path:hover{stroke-width:8}</style>
<ellipse fill="#4949ac" stroke="black" cx="327.72" cy="-18" rx="27.66" ry="18"/>
<text xml:space="preserve" text-anchor="middle" x="327.72" y="-14.5" font-family="Helvetica,sans-Serif" font-size="10.00" fill="#ffffff">src.run</text>
</g>
<!-- src_app&#45;&gt;src_run -->
<g id="edge13" class="edge">
<title>src_app&#45;&gt;src_run</title><style>.edge>path:hover{stroke-width:8}</style>
<path fill="none" stroke="black" d="M307.39,-71.7C310.35,-64.04 313.89,-54.85 317.19,-46.3"/>
<polygon fill="blue" stroke="black" points="320.43,-47.62 320.76,-37.03 313.9,-45.1 320.43,-47.62"/>
</g>
<!-- src_app_clean -->
<g id="node7" class="node">
<title>src_app_clean</title><style>.edge>path:hover{stroke-width:8}</style>
<ellipse fill="#3d3db8" stroke="black" cx="294.72" cy="-332.23" rx="44.8" ry="18"/>
<text xml:space="preserve" text-anchor="middle" x="294.72" y="-328.73" font-family="Helvetica,sans-Serif" font-size="10.00" fill="#ffffff">src.app.clean</text>
</g>
<!-- src_app_pipeline -->
<g id="node10" class="node">
<title>src_app_pipeline</title><style>.edge>path:hover{stroke-width:8}</style>
<ellipse fill="#2f2fbc" stroke="black" cx="270.72" cy="-247.11" rx="34.65" ry="31.11"/>
<text xml:space="preserve" text-anchor="middle" x="270.72" y="-255.61" font-family="Helvetica,sans-Serif" font-size="10.00" fill="#ffffff">src.</text>
<text xml:space="preserve" text-anchor="middle" x="270.72" y="-243.61" font-family="Helvetica,sans-Serif" font-size="10.00" fill="#ffffff">app.</text>
<text xml:space="preserve" text-anchor="middle" x="270.72" y="-231.61" font-family="Helvetica,sans-Serif" font-size="10.00" fill="#ffffff">pipeline</text>
</g>
<!-- src_app_clean&#45;&gt;src_app_pipeline -->
<g id="edge14" class="edge">
<title>src_app_clean&#45;&gt;src_app_pipeline</title><style>.edge>path:hover{stroke-width:8}</style>
<path fill="none" stroke="black" d="M289.75,-314C287.6,-306.57 284.99,-297.53 282.4,-288.55"/>
<polygon fill="#3d3db8" stroke="black" points="285.84,-287.85 279.7,-279.21 279.11,-289.79 285.84,-287.85"/>
</g>
<!-- src_app_db&#45;&gt;src_app -->
<g id="edge15" class="edge">
<title>src_app_db&#45;&gt;src_app</title><style>.edge>path:hover{stroke-width:8}</style>
<path fill="none" stroke="black" d="M332.92,-497.17C334.58,-483.85 336.88,-465 338.72,-448.45 343.58,-404.84 346.5,-394.05 348.72,-350.23 353.04,-265.1 325.68,-166.65 310.44,-119.31"/>
<polygon fill="#2f2fbc" stroke="black" points="313.78,-118.25 307.33,-109.85 307.13,-120.44 313.78,-118.25"/>
</g>
<!-- src_app_db&#45;&gt;src_app_db_helper -->
<g id="edge16" class="edge">
<title>src_app_db&#45;&gt;src_app_db_helper</title><style>.edge>path:hover{stroke-width:8}</style>
<path fill="none" stroke="black" d="M323.4,-497.8C318.57,-486.73 312.03,-471.74 305.93,-457.76"/>
<polygon fill="#2f2fbc" stroke="black" points="309.2,-456.5 301.99,-448.73 302.78,-459.3 309.2,-456.5"/>
</g>
<!-- src_app_db_helper&#45;&gt;src_app_clean -->
<g id="edge17" class="edge">
<title>src_app_db_helper&#45;&gt;src_app_clean</title><style>.edge>path:hover{stroke-width:8}</style>
<path fill="none" stroke="black" d="M290.92,-385.86C291.48,-378.08 292.08,-369.74 292.64,-362.04"/>
<polygon fill="#2d2db4" stroke="black" points="296.12,-362.38 293.35,-352.16 289.14,-361.88 296.12,-362.38"/>
</g>
<!-- src_app_db_helper&#45;&gt;src_app_pipeline -->
<g id="edge18" class="edge">
<title>src_app_db_helper&#45;&gt;src_app_pipeline</title><style>.edge>path:hover{stroke-width:8}</style>
<path fill="none" stroke="black" d="M264.9,-391.46C255.43,-379.88 245.63,-365.33 240.72,-350.23 233.74,-328.72 240.28,-304.45 249.02,-284.97"/>
<polygon fill="#2d2db4" stroke="black" points="252.13,-286.57 253.36,-276.05 245.84,-283.51 252.13,-286.57"/>
</g>
<!-- src_app_pipeline&#45;&gt;src_app_routes -->
<g id="edge19" class="edge">
<title>src_app_pipeline&#45;&gt;src_app_routes</title><style>.edge>path:hover{stroke-width:8}</style>
<path fill="none" stroke="black" d="M252.69,-220.27C245.9,-210.55 238.18,-199.48 231.34,-189.69"/>
<polygon fill="#2f2fbc" stroke="black" points="234.33,-187.85 225.74,-181.65 228.59,-191.86 234.33,-187.85"/>
</g>
<!-- src_app_pipeline&#45;&gt;src_run -->
<g id="edge20" class="edge">
<title>src_app_pipeline&#45;&gt;src_run</title><style>.edge>path:hover{stroke-width:8}</style>
<path fill="none" stroke="black" d="M287.79,-219.66C304.04,-192.78 327.35,-149.34 336.72,-108 341.29,-87.84 338.68,-64.59 335.11,-46.91"/>
<polygon fill="#2f2fbc" stroke="black" points="338.58,-46.39 332.97,-37.4 331.75,-47.93 338.58,-46.39"/>
</g>
<!-- src_app_query_data&#45;&gt;src_app_routes -->
<g id="edge21" class="edge">
<title>src_app_query_data&#45;&gt;src_app_routes</title><style>.edge>path:hover{stroke-width:8}</style>
<path fill="none" stroke="black" d="M191.7,-484.29C196.08,-417.32 206.55,-257.38 210.84,-191.8"/>
<polygon fill="#3a3ab0" stroke="black" points="214.33,-192.07 211.49,-181.86 207.34,-191.61 214.33,-192.07"/>
</g>
<!-- src_app_routes&#45;&gt;src_app -->
<g id="edge22" class="edge">
<title>src_app_routes&#45;&gt;src_app</title><style>.edge>path:hover{stroke-width:8}</style>
<path fill="none" stroke="black" d="M234.47,-143.7C245.16,-135.2 258.21,-124.81 269.9,-115.51"/>
<polygon fill="blue" stroke="black" points="272.08,-118.25 277.73,-109.29 267.72,-112.78 272.08,-118.25"/>
</g>
<!-- src_app_scrape&#45;&gt;src_app_clean -->
<g id="edge23" class="edge">
<title>src_app_scrape&#45;&gt;src_app_clean</title><style>.edge>path:hover{stroke-width:8}</style>
<path fill="none" stroke="black" d="M408.87,-401.48C386.5,-388.1 353.42,-368.32 328.62,-353.49"/>
<polygon fill="#3d3db8" stroke="black" points="330.57,-350.58 320.19,-348.45 326.98,-356.59 330.57,-350.58"/>
</g>
<!-- src_load_data&#45;&gt;src_app_db_helper -->
<g id="edge24" class="edge">
<title>src_load_data&#45;&gt;src_app_db_helper</title><style>.edge>path:hover{stroke-width:8}</style>
<path fill="none" stroke="black" d="M489.86,-583.94C465.43,-561.33 418.53,-518.6 376.72,-484.45 360.76,-471.42 342.63,-457.63 326.99,-446.04"/>
<polygon fill="#3333cc" stroke="black" points="329.45,-443.51 319.33,-440.39 325.3,-449.14 329.45,-443.51"/>
</g>
<!-- src_load_data&#45;&gt;src_app_pipeline -->
<g id="edge25" class="edge">
<title>src_load_data&#45;&gt;src_app_pipeline</title><style>.edge>path:hover{stroke-width:8}</style>
<path fill="none" stroke="black" d="M510.32,-582.35C517.33,-543.88 529,-449.72 490.72,-386.23 450.83,-320.06 365.81,-280.6 313.92,-261.73"/>
<polygon fill="#3333cc" stroke="black" points="315.4,-258.54 304.81,-258.52 313.08,-265.15 315.4,-258.54"/>
</g>
<!-- urllib3 -->
<g id="node16" class="node">
<title>urllib3</title><style>.edge>path:hover{stroke-width:8}</style>
<ellipse fill="#c040bf" stroke="black" cx="433.72" cy="-672.68" rx="27" ry="18"/>
<text xml:space="preserve" text-anchor="middle" x="433.72" y="-669.18" font-family="Helvetica,sans-Serif" font-size="10.00" fill="#ffffff">urllib3</text>
</g>
<!-- urllib3&#45;&gt;src_app_scrape -->
<g id="edge26" class="edge">
<title>urllib3&#45;&gt;src_app_scrape</title><style>.edge>path:hover{stroke-width:8}</style>
<path fill="none" stroke="black" d="M431.54,-654.45C430.24,-640.12 429.56,-619.3 433.72,-601.68"/>
</g>
</g>
</svg>
